<?xml version="1.0" encoding="UTF-8" standalone="no"?>
<!-- Created with Inkscape (http://www.inkscape.org/) -->

<svg
   width="9.9999997e-06"
   height="9.9999997e-06"
   viewBox="0 0 2.6458334e-06 2.6458333e-06"
   version="1.1"
   id="svg38"
   inkscape:version="1.1.1 (c3084ef, 2021-09-22)"
   sodipodi:docname="drawingnew.svg"
   xmlns:inkscape="http://www.inkscape.org/namespaces/inkscape"
   xmlns:sodipodi="http://sodipodi.sourceforge.net/DTD/sodipodi-0.dtd"
   xmlns="http://www.w3.org/2000/svg"
   xmlns:svg="http://www.w3.org/2000/svg">
  <sodipodi:namedview
     id="namedview40"
     pagecolor="#ffffff"
     bordercolor="#666666"
     borderopacity="1.0"
     inkscape:pageshadow="2"
     inkscape:pageopacity="0.0"
     inkscape:pagecheckerboard="0"
     inkscape:document-units="mm"
     showgrid="false"
     inkscape:zoom="0.77771465"
     inkscape:cx="396.67505"
     inkscape:cy="520.11364"
     inkscape:window-width="1312"
     inkscape:window-height="1081"
     inkscape:window-x="426"
     inkscape:window-y="45"
     inkscape:window-maximized="0"
     inkscape:current-layer="layer1"
     showguides="false"
     width="1e-05px"
     units="px" />
  <defs
     id="defs35">
    <style
       id="style42">.cls-1{fill:#000100;}.cls-2{fill:#1d1d1b;}</style>
  </defs>
  <g
     inkscape:label="Layer 1"
     inkscape:groupmode="layer"
     id="layer1">
    <g
       id="g89"
       transform="matrix(0.2247745,0,0,0.22928391,34.957446,51.942133)"
       style="fill:#00ffff">
      <polygon
         class="cls-1"
         points="139.48,177.82 139.48,237.36 199.02,237.36 199.02,129.61 79.94,129.61 199.02,10.53 139.48,10.53 20.39,129.61 20.39,177.82 "
         id="polygon46"
         style="fill:#00ffff" />
      <polygon
         class="cls-1"
         points="284.08,10.53 224.54,10.53 224.54,70.07 "
         id="polygon48"
         style="fill:#00ffff" />
      <polygon
         class="cls-1"
         points="284.08,129.61 343.62,70.07 343.62,10.53 284.08,10.53 284.08,70.07 224.54,129.61 224.54,189.16 284.08,189.16 "
         id="polygon50"
         style="fill:#00ffff" />
      <polygon
         class="cls-1"
         points="284.08,189.16 343.62,189.16 343.62,129.61 "
         id="polygon52"
         style="fill:#00ffff" />
      <rect
         class="cls-2"
         x="224.53999"
         y="237.36"
         width="4.6999998"
         height="59.200001"
         id="rect54"
         style="fill:#00ffff" />
      <path
         d="m 261.63,249 -3.1,25.25 h 9.77 l -0.75,6.11 h -17 L 254.39,249 Z"
         id="path56"
         style="fill:#00ffff" />
      <path
         d="m 292,274.44 h -11.9 l -3,5.92 h -7.8 L 285.88,249 h 6.68 l 8.44,31.36 h -7.42 z m -1.32,-5.55 -2.54,-11.05 -5.26,11.05 z"
         id="path58"
         style="fill:#00ffff" />
      <path
         d="m 314.42,249 -2.07,17.11 c -0.06,0.51 -0.12,0.92 -0.16,1.25 a 10.87,10.87 0 0 0 -0.07,1.48 9.67,9.67 0 0 0 0.23,2.05 4,4 0 0 0 1.13,2 5.06,5.06 0 0 0 1.67,1 6.62,6.62 0 0 0 2.47,0.4 7.36,7.36 0 0 0 2.89,-0.47 5.35,5.35 0 0 0 1.71,-1.08 4.81,4.81 0 0 0 0.94,-1.31 8.61,8.61 0 0 0 0.61,-1.58 12.46,12.46 0 0 0 0.36,-1.62 c 0.07,-0.53 0.14,-1 0.21,-1.46 L 326.5,249 h 7.24 l -2.26,18.24 c -0.12,0.94 -0.26,1.88 -0.4,2.82 a 22.34,22.34 0 0 1 -0.58,2.75 12.47,12.47 0 0 1 -1,2.57 10.7,10.7 0 0 1 -1.69,2.3 9.16,9.16 0 0 1 -2.56,1.9 12.93,12.93 0 0 1 -2.8,1 14.87,14.87 0 0 1 -2.68,0.4 c -0.85,0.05 -1.6,0.07 -2.26,0.07 -0.66,0 -1.6,0 -2.46,-0.09 a 12.9,12.9 0 0 1 -2.59,-0.45 13.17,13.17 0 0 1 -2.54,-1 9.37,9.37 0 0 1 -2.32,-1.72 8.3,8.3 0 0 1 -2.14,-3.24 11.74,11.74 0 0 1 -0.64,-4 c 0,-0.34 0,-0.74 0.05,-1.17 l 0.09,-1.34 q 0,-0.69 0.12,-1.32 0.12,-0.63 0.12,-1.11 l 2,-16.64 z"
         id="path60"
         style="fill:#00ffff" />
      <path
         d="m 355.88,256.67 a 8.17,8.17 0 0 0 -2.84,-1.81 7.72,7.72 0 0 0 -2.42,-0.45 9.74,9.74 0 0 0 -1.51,0.14 2.92,2.92 0 0 0 -1.46,0.66 2.53,2.53 0 0 0 -0.8,1 3.08,3.08 0 0 0 -0.28,1.26 2.66,2.66 0 0 0 0.28,1.23 2.81,2.81 0 0 0 0.8,0.89 7.76,7.76 0 0 0 1.2,0.78 q 0.69,0.34 1.86,0.87 l 1.83,0.84 a 17.61,17.61 0 0 1 2.17,1.2 9.67,9.67 0 0 1 2,1.81 7.44,7.44 0 0 1 1.22,2.23 8.62,8.62 0 0 1 0.38,2.66 11.45,11.45 0 0 1 -0.9,4.58 10.69,10.69 0 0 1 -2.25,3.46 9.49,9.49 0 0 1 -4.26,2.47 19.25,19.25 0 0 1 -4.72,0.58 16.72,16.72 0 0 1 -3.2,-0.28 10.88,10.88 0 0 1 -3.05,-1.13 15.22,15.22 0 0 1 -2.26,-1.53 16.74,16.74 0 0 1 -1.93,-1.8 l 4.05,-5.18 a 12.24,12.24 0 0 0 1.22,1.34 10.28,10.28 0 0 0 1.41,1.16 7,7 0 0 0 1.69,0.75 6.82,6.82 0 0 0 2,0.28 8.53,8.53 0 0 0 1.81,-0.23 4.18,4.18 0 0 0 1.66,-0.76 3.49,3.49 0 0 0 1.32,-2.91 2.56,2.56 0 0 0 -0.31,-1.36 3.53,3.53 0 0 0 -0.58,-0.8 4.69,4.69 0 0 0 -0.73,-0.54 11.38,11.38 0 0 0 -1.76,-0.87 l -1.84,-0.76 a 4.56,4.56 0 0 1 -0.7,-0.28 c -0.35,-0.16 -0.73,-0.35 -1.15,-0.59 a 11.08,11.08 0 0 1 -1.32,-0.84 10,10 0 0 1 -1.25,-1.06 6.92,6.92 0 0 1 -1.59,-2.49 8.18,8.18 0 0 1 -0.47,-2.82 9.73,9.73 0 0 1 0.84,-4.21 10.43,10.43 0 0 1 2,-2.89 9,9 0 0 1 4.18,-2.42 18.37,18.37 0 0 1 4.28,-0.54 16.93,16.93 0 0 1 4.3,0.59 13.47,13.47 0 0 1 4.77,2.51 z"
         id="path62"
         style="fill:#00ffff" />
      <path
         d="m 382,274.44 h -11.83 l -3,5.92 h -7.8 L 376,249 h 6.68 l 8.32,31.36 h -7.42 z m -1.32,-5.55 -2.54,-11.05 -5.26,11.05 z"
         id="path64"
         style="fill:#00ffff" />
      <path
         d="m 394.43,280.36 3.9,-31.36 h 6.3 l 14.43,20.41 2.54,-20.41 h 7.24 L 425,280.36 h -6.3 l -14.52,-20.5 -2.49,20.5 z"
         id="path66"
         style="fill:#00ffff" />
      <path
         d="m 431.85,280.36 3.9,-31.36 h 6.3 L 456.48,269.41 459,249 h 7.24 l -3.86,31.36 h -6.3 l -14.52,-20.5 -2.5,20.5 z"
         id="path68"
         style="fill:#00ffff" />
      <path
         d="m 489.67,255.11 h -10.25 l -0.75,6.07 h 9.87 l -0.75,6.11 h -9.88 l -0.84,7 h 10.43 l -0.75,6.11 h -17.49 l 3.86,-31.4 h 17.3 z"
         id="path70"
         style="fill:#00ffff" />
    </g>
  </g>
</svg>
